<svg xmlns="http://www.w3.org/2000/svg" version="1.1" xmlns:xlink="http://www.w3.org/1999/xlink" width="1500" height="67" viewBox="0 0 1500 67"><svg xml:space="preserve" width="1500" height="67" data-version="2" data-id="lg_01rAWatloztLopo3OC" viewBox="0 0 568 67" x="0" y="0"><rect width="100%" height="100%" fill="transparent"></rect><path fill="#ff0d00" d="M117.89 52.559H87.46V9.219h30.43v9.57h-15.12v7.69h13.8v7.94h-13.8v8.25h15.12z" paint-order="stroke"></path><rect width="30.43" height="43.34" x="-15.21" y="-21.67" fill="none" rx="0" ry="0" transform="translate(103.17 31.39)"></rect><path fill="#ff0d00" d="M146.18 52.559h-16.07l-12.85-43.34h14.87l6.68 27.02 6.67-27.02h14.24z" paint-order="stroke"></path><rect width="42.46" height="43.34" x="-21.23" y="-21.67" fill="none" rx="0" ry="0" transform="translate(138.99 31.39)"></rect><path fill="#ff0d00" d="M190.47 52.559h-30.43V9.219h30.43v9.57h-15.12v7.69h13.79v7.94h-13.79v8.25h15.12z" paint-order="stroke"></path><rect width="30.43" height="43.34" x="-15.21" y="-21.67" fill="none" rx="0" ry="0" transform="translate(175.75 31.39)"></rect><path fill="#ff0d00" d="M226.19 53.569q-4.54 0-7.5-1.36-2.96-1.35-4.73-3.75-1.76-2.39-2.64-5.6-.88-3.22-1.2-6.93h-2.96v16.63h-13.8V9.219h17.83q10.33 0 14.9 3.62t4.57 9.79q0 3.72-2.02 6.65-2.01 2.93-6.49 4.88.26 1.39.45 2.27.18.88.56 1.95.82 2.27 2.05 3.15 1.23.89 3.37.89 1.39 0 2.77-.38l.76 10.33q-1.26.5-2.68.85-1.42.35-3.24.35m-19.03-34.97v8.7h2.39q4.67 0 6.59-1.04t1.92-3.56q0-2.14-1.58-3.12-1.57-.98-4.97-.98z" paint-order="stroke"></path><rect width="38.75" height="44.35" x="-19.38" y="-22.18" fill="none" rx="0" ry="0" transform="translate(213.24 31.9)"></rect><path fill="#ff0d00" d="M263.61 52.559h-30.43V9.219h30.43v9.57h-15.12v7.69h13.8v7.94h-13.8v8.25h15.12z" paint-order="stroke"></path><rect width="30.43" height="43.34" x="-15.21" y="-21.67" fill="none" rx="0" ry="0" transform="translate(248.9 31.39)"></rect><path fill="#ff0d00" d="M279.74 53.569q-3.97 0-8.07-.98-4.09-.98-6.93-2.61l2.27-10.27q3.65 1.95 6.84 2.55 3.18.6 5.89.6 2.52 0 3.81-.82t1.29-2.21q0-1.26-1.45-1.98-1.45-.73-3.75-1.36-2.3-.63-4.88-1.48t-4.88-2.26q-2.3-1.42-3.75-3.78-1.45-2.37-1.45-5.96 0-4.53 2.2-7.84 2.21-3.31 6.3-5.1 4.1-1.8 9.64-1.8 3.72 0 7.28.98 3.56.97 5.7 2.61l-2.14 9.26q-3.21-1.32-5.76-1.92-2.56-.6-4.82-.6-2.65 0-4.04.76-1.38.75-1.38 2.01 0 1.2 1.45 1.96 1.45.75 3.71 1.45 2.27.69 4.85 1.57 2.59.88 4.86 2.33 2.26 1.45 3.71 3.78 1.45 2.33 1.45 5.86 0 7.31-4.75 11.28-4.76 3.97-13.2 3.97" paint-order="stroke"></path><rect width="33.01" height="45.3" x="-16.5" y="-22.65" fill="none" rx="0" ry="0" transform="translate(281.69 31.42)"></rect><path fill="#ff0d00" d="M320.69 52.559h-14.68v-33.39h-9.77v-9.95h34.21v9.95h-9.76z" paint-order="stroke"></path><rect width="34.21" height="43.34" x="-17.11" y="-21.67" fill="none" rx="0" ry="0" transform="translate(313.85 31.39)"></rect><path fill="#ff0d00" d="M353.76 52.559h-13.1V9.219h13.1l10.84 21.04 10.58-21.04h13.11v43.34h-13.11v-22.68l-8 15.12h-5.35l-8.07-15.12z" paint-order="stroke"></path><rect width="47.63" height="43.34" x="-23.82" y="-21.67" fill="none" rx="0" ry="0" transform="translate(364.98 31.39)"></rect><path fill="#ff0d00" d="M413.8 53.569q-6.87 0-12.1-2.9-5.22-2.9-8.15-8-2.93-5.1-2.93-11.72 0-6.68 2.93-11.78t8.15-8q5.23-2.9 12.1-2.9 6.87 0 12.1 2.87 5.23 2.86 8.16 7.97 2.92 5.1 2.92 11.84 0 6.62-2.92 11.72-2.93 5.1-8.16 8-5.23 2.9-12.1 2.9m0-11.47q3.97 0 6.52-3.09 2.55-3.08 2.55-8.12 0-3.4-1.16-5.99-1.17-2.58-3.22-4.06-2.04-1.48-4.75-1.48-3.97 0-6.49 3.18t-2.52 8.35q0 5.04 2.52 8.12 2.52 3.09 6.55 3.09" paint-order="stroke"></path><rect width="46.36" height="45.3" x="-23.18" y="-22.65" fill="none" rx="0" ry="0" transform="translate(414.3 31.42)"></rect><path fill="#ff0d00" d="M464.7 52.559h-16.06l-12.85-43.34h14.87l6.67 27.02 6.68-27.02h14.24z" paint-order="stroke"></path><rect width="42.46" height="43.34" x="-21.23" y="-21.67" fill="none" rx="0" ry="0" transform="translate(457.52 31.39)"></rect><path fill="#ff0d00" d="M492.8 52.559h-14.24V9.219h14.24z" paint-order="stroke"></path><rect width="14.24" height="43.34" x="-7.12" y="-21.67" fill="none" rx="0" ry="0" transform="translate(486.18 31.39)"></rect><path fill="#ff0d00" d="M527.39 52.559h-30.43V9.219h30.43v9.57h-15.12v7.69h13.8v7.94h-13.8v8.25h15.12z" paint-order="stroke"></path><rect width="30.43" height="43.34" x="-15.21" y="-21.67" fill="none" rx="0" ry="0" transform="translate(512.67 31.39)"></rect><path fill="#ff0d00" d="M543.52 53.569q-3.97 0-8.07-.98-4.09-.98-6.93-2.61l2.27-10.27q3.66 1.95 6.84 2.55 3.18.6 5.89.6 2.52 0 3.81-.82t1.29-2.21q0-1.26-1.45-1.98-1.45-.73-3.75-1.36-2.3-.63-4.88-1.48t-4.88-2.26q-2.3-1.42-3.75-3.78-1.45-2.37-1.45-5.96 0-4.53 2.21-7.84 2.2-3.31 6.3-5.1 4.09-1.8 9.63-1.8 3.72 0 7.28.98 3.56.97 5.7 2.61l-2.14 9.26q-3.21-1.32-5.76-1.92-2.56-.6-4.82-.6-2.65 0-4.04.76-1.38.75-1.38 2.01 0 1.2 1.45 1.96 1.45.75 3.71 1.45 2.27.69 4.86 1.57 2.58.88 4.85 2.33 2.26 1.45 3.71 3.78 1.45 2.33 1.45 5.86 0 7.31-4.75 11.28-4.76 3.97-13.2 3.97" paint-order="stroke"></path><rect width="33.01" height="45.3" x="-16.5" y="-22.65" fill="none" rx="0" ry="0" transform="translate(545.47 31.42)"></rect><circle r="21.34" fill="#ff0d00" transform="matrix(.6359 -.219 .219 .6359 23.77 43.1)"></circle><circle r="21.34" fill="#ff0d00" transform="matrix(.6359 -.219 .219 .6359 45.8 18.6)"></circle><circle r="21.34" fill="#ff0d00" transform="matrix(.6359 -.219 .219 .6359 56.03 48.4)"></circle></svg></svg>